<?xml version="1.0" standalone="no"?>
<!DOCTYPE svg PUBLIC "-//W3C//DTD SVG 20010904//EN"
 "http://www.w3.org/TR/2001/REC-SVG-20010904/DTD/svg10.dtd">
<svg version="1.0" xmlns="http://www.w3.org/2000/svg"
 width="1599.000000pt" height="1599.000000pt" viewBox="0 0 1599.000000 1599.000000"
 preserveAspectRatio="xMidYMid meet">
<metadata>
Created by potrace 1.16, written by Peter Selinger 2001-2019
</metadata>
<g transform="translate(0.000000,1599.000000) scale(0.100000,-0.100000)"
fill="#000000" stroke="none">
<path d="M6555 13882 c-32 -78 -112 -187 -193 -264 -62 -57 -106 -88 -208
-141 -154 -80 -230 -139 -313 -243 -65 -80 -174 -291 -206 -395 -45 -151 -37
-392 21 -626 86 -351 213 -553 474 -751 131 -100 196 -137 337 -192 148 -56
270 -157 394 -323 l58 -77 52 102 c108 215 212 331 379 424 215 121 394 346
480 602 79 240 84 634 10 899 -52 184 -127 313 -259 444 -133 131 -240 187
-465 241 -204 48 -357 136 -463 266 -70 87 -75 88 -98 34z m64 -94 c40 -204
118 -319 286 -426 231 -147 287 -187 362 -256 146 -136 224 -258 288 -449 65
-194 88 -474 52 -620 -34 -138 -53 -165 -276 -389 -207 -209 -231 -238 -278
-338 -28 -61 -108 -300 -119 -355 -3 -19 -9 -35 -13 -35 -4 0 -22 28 -41 63
-93 174 -204 332 -278 398 -26 23 -132 98 -237 168 -104 69 -211 148 -236 174
-93 96 -149 238 -174 447 -31 254 -13 523 42 633 80 161 163 270 333 437 142
141 194 211 231 317 17 48 21 82 21 201 1 78 4 142 8 142 4 0 17 -51 29 -112z"/>
<path d="M9175 13804 c-107 -22 -183 -64 -268 -148 -140 -136 -195 -250 -204
-421 -9 -179 47 -339 165 -466 81 -87 140 -128 311 -213 178 -89 258 -142 341
-226 118 -120 171 -262 151 -406 -10 -64 -40 -133 -100 -224 -41 -63 -211
-235 -291 -295 -148 -111 -229 -362 -190 -591 13 -77 30 -108 30 -55 0 54 28
177 59 257 71 184 178 312 371 444 204 140 329 280 381 430 27 79 30 221 5
344 -19 97 -84 233 -139 293 -52 57 -204 173 -402 309 -85 57 -173 126 -197
153 -76 85 -100 190 -73 322 40 199 168 335 346 369 115 22 266 -30 400 -138
110 -88 199 -212 199 -274 0 -16 3 -28 8 -28 8 1 294 411 289 416 -1 2 -32 -6
-67 -17 -184 -59 -373 -24 -600 111 -56 33 -80 40 -177 54 -135 19 -254 19
-348 0z"/>
<path d="M12220 13293 c0 -39 -60 -140 -111 -189 -94 -90 -198 -148 -414 -231
-322 -125 -564 -329 -740 -624 -80 -136 -128 -276 -161 -469 -28 -166 -22
-489 13 -655 5 -23 12 1 30 100 45 248 103 424 204 628 158 318 366 526 684
684 108 54 255 115 350 144 128 40 303 88 363 100 34 6 62 13 62 15 0 14 -264
514 -271 514 -5 0 -9 -8 -9 -17z"/>
<path d="M3445 12866 c-240 -62 -581 -200 -760 -308 -22 -13 -55 -33 -72 -43
-18 -11 -33 -23 -33 -26 0 -4 22 -9 50 -11 167 -16 358 -205 508 -504 51 -101
213 -466 332 -744 50 -118 97 -228 105 -245 17 -39 169 -405 251 -606 l34 -85
-24 -67 c-50 -131 -67 -216 -71 -354 -2 -73 -1 -134 3 -137 5 -3 18 43 31 102
28 129 92 327 106 327 5 0 41 -80 81 -178 39 -97 74 -180 77 -184 4 -3 7 5 7
18 0 20 -42 337 -57 436 -13 82 235 343 527 553 228 164 344 273 433 407 164
247 152 475 -41 732 -118 156 -265 235 -432 233 -113 -1 -247 -47 -370 -126
-48 -31 -57 -33 -70 -20 -16 16 -18 12 51 99 26 31 60 83 75 114 27 51 29 65
29 166 0 106 -1 113 -36 186 -41 85 -125 178 -200 222 -150 88 -310 100 -534
43z m190 -166 c97 -47 186 -153 224 -268 26 -76 28 -208 5 -336 -16 -93 -88
-336 -123 -419 -11 -26 -17 -47 -12 -47 4 0 48 26 97 59 110 72 238 140 324
172 56 20 83 24 190 24 116 0 129 -2 175 -26 66 -35 150 -125 183 -196 38 -82
42 -196 12 -290 -52 -164 -168 -318 -395 -526 -156 -142 -252 -255 -302 -354
-21 -40 -41 -73 -44 -73 -4 0 -10 17 -14 38 -17 96 -125 549 -165 692 -130
462 -229 734 -333 915 -66 115 -192 296 -250 360 -65 72 -124 115 -169 124
-23 5 -34 13 -36 28 -3 17 9 26 75 53 189 79 279 100 413 97 77 -2 105 -7 145
-27z"/>
<path d="M12405 12593 c38 -33 55 -67 55 -108 0 -46 -21 -85 -89 -165 -166
-196 -468 -686 -543 -880 -68 -177 -91 -244 -122 -348 -58 -195 -100 -366
-155 -632 -11 -52 -23 -108 -26 -125 -12 -50 10 -17 40 60 43 109 110 257 189
415 272 547 656 1072 1179 1615 68 72 124 131 122 133 -4 4 -203 21 -375 32
-91 6 -194 13 -230 16 -63 5 -65 5 -45 -13z"/>
<path d="M13565 12559 c-38 -5 -155 -18 -260 -30 -104 -12 -193 -25 -196 -28
-4 -3 7 -46 23 -96 115 -357 172 -676 172 -965 0 -278 -43 -460 -158 -665 -87
-157 -186 -279 -389 -478 -152 -150 -154 -154 -27 -89 296 154 512 324 655
516 190 258 289 626 256 958 -7 68 -19 150 -28 183 -76 298 -68 508 26 645 47
68 53 64 -74 49z"/>
<path d="M15350 11098 c-58 -92 -239 -280 -410 -427 -123 -106 -418 -344 -515
-416 -22 -16 -44 -33 -50 -38 -21 -17 -243 -182 -311 -231 -244 -174 -459
-326 -591 -418 -84 -58 -150 -107 -148 -110 3 -2 69 6 147 19 l143 23 310 154
c707 353 1177 624 1422 821 89 71 113 100 155 185 l26 55 1 -36 c1 -51 -34
-251 -70 -397 -53 -220 -130 -399 -243 -567 -37 -55 -70 -112 -73 -126 l-5
-26 -53 29 c-219 118 -530 138 -885 58 -118 -27 -385 -111 -399 -126 -3 -4 23
-3 59 1 220 25 595 20 775 -10 113 -19 251 -57 309 -87 l40 -20 -70 -67 c-174
-166 -337 -281 -490 -345 -139 -58 -203 -67 -471 -69 -241 -3 -250 -3 -327
-30 -44 -15 -120 -48 -170 -73 -89 -45 -191 -112 -183 -121 3 -2 60 6 128 19
176 32 434 32 529 0 180 -61 358 -49 624 39 228 76 359 154 516 306 52 51 98
93 101 93 15 0 34 -69 33 -117 0 -29 2 -53 5 -53 43 1 146 38 188 66 55 38
123 113 123 136 0 18 -83 144 -123 186 l-31 32 23 38 c66 110 118 247 152 407
19 84 23 142 27 360 4 261 2 285 -39 545 -17 107 -111 411 -127 409 -4 0 -27
-32 -52 -71z"/>
<path d="M1528 11090 c-86 -15 -181 -52 -318 -121 -80 -41 -168 -77 -215 -89
-87 -23 -221 -30 -325 -17 l-65 7 35 -30 c69 -59 200 -141 257 -161 83 -29
228 -36 323 -14 204 45 445 58 602 30 205 -36 404 -147 607 -340 145 -139 225
-277 238 -410 3 -36 -2 -177 -12 -314 -18 -236 -18 -255 -2 -328 20 -92 57
-192 127 -339 27 -59 50 -110 50 -114 0 -4 -37 6 -82 22 -121 44 -264 84 -349
98 -92 16 -206 9 -439 -26 -200 -30 -291 -28 -386 7 -127 47 -221 116 -389
284 -123 123 -204 222 -251 309 -70 128 -106 382 -86 608 17 188 15 262 -8
347 -27 95 -47 134 -112 213 -70 86 -148 172 -148 164 0 -3 9 -39 21 -79 13
-45 23 -115 26 -187 6 -134 -11 -225 -72 -375 -48 -118 -65 -205 -65 -323 0
-123 11 -191 55 -333 71 -234 146 -335 404 -552 42 -34 214 -143 281 -177 301
-152 664 -170 1000 -50 155 55 258 66 425 46 72 -9 145 -20 164 -26 19 -5 36
-8 38 -7 1 2 -11 59 -29 128 -28 112 -31 139 -32 279 -1 154 -1 155 36 261 48
133 58 202 53 359 -7 230 -61 400 -193 605 -116 181 -330 394 -502 502 -78 48
-208 106 -287 128 -68 18 -305 28 -375 15z"/>
<path d="M7235 9580 c-3 -5 -37 -10 -76 -10 -38 0 -69 -4 -69 -9 0 -5 -25 -13
-55 -16 -30 -4 -58 -11 -61 -16 -3 -5 -25 -9 -49 -9 -24 0 -46 -4 -49 -9 -3
-4 -24 -11 -46 -15 -22 -3 -40 -11 -40 -16 0 -6 -16 -10 -35 -10 -19 0 -35 -4
-35 -10 0 -5 -13 -10 -28 -10 -16 0 -39 -9 -52 -20 -13 -11 -31 -20 -42 -20
-10 0 -18 -4 -18 -10 0 -5 -13 -10 -30 -10 -16 0 -30 -4 -30 -9 0 -5 -13 -12
-30 -16 -16 -4 -32 -11 -35 -16 -4 -5 -17 -9 -31 -9 -13 0 -24 -4 -24 -10 0
-5 -9 -10 -19 -10 -10 0 -21 -7 -25 -15 -3 -8 -15 -15 -26 -15 -11 0 -20 -4
-20 -10 0 -5 -13 -10 -30 -10 -20 0 -30 -5 -30 -15 0 -8 -9 -15 -20 -15 -11 0
-20 -7 -20 -15 0 -8 -7 -15 -15 -15 -8 0 -15 -4 -15 -9 0 -5 -11 -12 -25 -15
-14 -4 -25 -11 -25 -16 0 -6 -7 -10 -15 -10 -8 0 -15 -4 -15 -10 0 -5 -9 -10
-20 -10 -11 0 -23 -7 -26 -15 -4 -8 -11 -15 -18 -15 -6 0 -18 -9 -26 -19 -7
-11 -17 -18 -22 -15 -4 3 -8 0 -8 -5 0 -6 -5 -11 -11 -11 -14 0 -39 -25 -39
-39 0 -6 -7 -11 -15 -11 -8 0 -15 -6 -15 -14 0 -8 -13 -20 -30 -28 -16 -7 -30
-17 -30 -21 0 -10 -26 -37 -35 -37 -8 0 -35 -26 -35 -34 0 -12 -34 -45 -42
-40 -4 3 -8 -6 -8 -20 0 -14 -4 -26 -10 -26 -5 0 -10 -7 -10 -15 0 -8 -7 -15
-15 -15 -9 0 -15 -9 -15 -25 0 -16 -6 -25 -15 -25 -10 0 -15 -11 -15 -35 0
-19 -4 -35 -9 -35 -5 0 -12 -18 -16 -40 -4 -22 -11 -40 -16 -40 -5 0 -9 -15
-9 -34 0 -19 -4 -38 -10 -41 -5 -3 -10 -21 -10 -38 0 -18 -7 -41 -15 -51 -8
-11 -15 -37 -15 -58 0 -21 -4 -38 -10 -38 -5 0 -10 -15 -10 -34 0 -18 -7 -50
-15 -69 -8 -20 -15 -55 -15 -77 0 -22 -4 -40 -10 -40 -6 0 -10 -27 -10 -60 0
-36 -4 -60 -11 -60 -5 0 -7 -4 -4 -10 3 -5 2 -10 -3 -10 -5 0 -12 -30 -15 -67
-3 -37 -10 -69 -16 -71 -7 -2 -11 -39 -11 -102 0 -55 -4 -100 -10 -102 -7 -2
-20 -416 -20 -662 0 -9 -4 -14 -10 -11 -5 3 -10 15 -10 26 0 10 -4 19 -10 19
-5 0 -10 11 -10 24 0 13 -7 29 -15 36 -8 7 -15 25 -15 41 0 16 -4 29 -10 29
-5 0 -10 20 -10 44 0 24 -5 46 -10 48 -6 2 -13 28 -17 58 -3 30 -12 59 -19 63
-20 12 -20 487 -1 487 11 0 16 26 20 102 4 57 11 104 17 106 5 2 10 26 10 53
0 27 5 49 10 49 6 0 10 11 10 25 0 14 7 28 15 31 8 4 15 17 15 30 0 13 5 24
10 24 6 0 10 7 10 15 0 8 7 15 15 15 8 0 15 5 15 10 0 14 -69 12 -85 -2 -33
-30 -45 -38 -55 -38 -5 0 -10 -4 -10 -10 0 -5 -18 -28 -40 -52 -76 -81 -90
-97 -90 -103 0 -10 -28 -35 -39 -35 -6 0 -11 -11 -11 -25 0 -16 -6 -25 -15
-25 -8 0 -15 -7 -15 -15 0 -8 -3 -15 -8 -15 -4 0 -16 -17 -27 -37 -11 -21 -24
-43 -30 -50 -5 -7 -16 -19 -22 -27 -7 -8 -13 -24 -13 -36 0 -11 -4 -20 -10
-20 -5 0 -10 -8 -10 -19 0 -10 -7 -24 -15 -31 -8 -7 -15 -21 -15 -31 0 -11 -4
-19 -10 -19 -5 0 -10 -9 -10 -20 0 -11 -6 -23 -14 -26 -8 -3 -18 -19 -21 -35
-4 -16 -11 -31 -16 -34 -5 -4 -9 -17 -9 -31 0 -24 -2 -31 -34 -91 -9 -17 -16
-45 -16 -62 0 -17 -4 -31 -10 -31 -5 0 -10 -15 -10 -32 0 -18 -7 -42 -15 -52
-8 -11 -15 -37 -15 -58 0 -21 -4 -38 -10 -38 -6 0 -10 -30 -10 -70 0 -40 4
-70 10 -70 6 0 10 -22 10 -48 0 -27 6 -57 15 -68 8 -10 15 -36 15 -56 0 -21 5
-38 10 -38 6 0 10 -18 10 -40 0 -22 4 -40 10 -40 5 0 13 -18 16 -40 4 -22 10
-40 15 -40 5 0 9 -12 9 -26 0 -14 7 -32 15 -40 8 -9 15 -26 15 -39 0 -12 7
-25 15 -29 8 -3 15 -14 15 -25 0 -11 5 -23 10 -26 6 -3 10 -14 10 -25 0 -10 7
-20 15 -24 8 -3 15 -14 15 -25 0 -11 5 -23 10 -26 6 -3 10 -15 10 -26 0 -10 4
-19 10 -19 5 0 12 -11 16 -25 3 -14 10 -22 15 -19 5 3 9 -4 9 -16 0 -12 6 -28
13 -35 29 -33 37 -45 37 -55 0 -5 7 -10 15 -10 8 0 15 -9 15 -20 0 -12 11 -31
25 -44 14 -13 25 -26 25 -30 0 -4 6 -14 13 -21 27 -31 37 -44 37 -50 0 -9 27
-35 37 -35 4 0 17 -18 27 -40 11 -22 25 -40 33 -40 7 0 13 -5 13 -10 0 -6 32
-41 70 -79 39 -38 70 -74 70 -80 0 -6 7 -11 15 -11 8 0 15 -3 15 -8 0 -7 30
-25 63 -38 9 -3 17 -11 17 -16 0 -11 25 -38 35 -38 10 0 35 -28 35 -39 0 -6
11 -11 25 -11 15 0 25 -6 25 -15 0 -9 6 -12 15 -9 10 4 15 0 15 -11 0 -9 9
-19 20 -22 11 -3 20 -9 20 -14 0 -5 6 -9 14 -9 8 0 17 -7 20 -16 3 -8 10 -12
16 -9 5 3 10 -1 10 -9 0 -10 9 -16 21 -16 12 0 32 -11 45 -25 13 -14 32 -25
44 -25 11 0 20 -4 20 -9 0 -5 11 -12 25 -15 14 -4 25 -11 25 -16 0 -6 6 -10
14 -10 8 0 16 -7 20 -15 3 -8 15 -15 26 -15 11 0 20 -4 20 -10 0 -5 11 -12 25
-16 14 -3 25 -10 25 -15 0 -5 11 -9 25 -9 14 0 25 -4 25 -9 0 -5 11 -12 25
-15 14 -4 25 -11 25 -16 0 -6 11 -10 25 -10 14 0 25 -4 25 -10 0 -5 10 -10 23
-10 12 0 31 -7 41 -15 11 -8 28 -15 38 -15 10 0 18 -4 18 -10 0 -5 14 -10 30
-10 19 0 30 -5 30 -14 0 -9 15 -17 40 -21 22 -4 38 -11 34 -16 -3 -5 13 -9 36
-9 25 0 39 -4 35 -10 -4 -6 6 -10 23 -10 16 0 35 -7 42 -15 7 -9 29 -15 51
-15 22 0 39 -4 39 -10 0 -5 18 -10 39 -10 22 0 41 -5 43 -12 2 -6 30 -13 61
-16 31 -2 54 -8 51 -13 -3 -5 20 -9 50 -9 31 0 56 5 56 10 0 6 -4 10 -10 10
-5 0 -10 7 -10 15 0 8 -7 15 -15 15 -8 0 -15 5 -15 10 0 6 -9 10 -20 10 -11 0
-20 7 -20 15 0 8 -7 15 -15 15 -8 0 -15 5 -15 10 0 6 -9 10 -21 10 -11 0 -17
5 -14 10 3 6 2 10 -4 10 -16 0 -221 213 -221 230 0 6 -4 10 -10 10 -5 0 -10 5
-10 11 0 6 -6 17 -12 24 -24 26 -33 40 -53 78 -11 20 -23 37 -27 37 -5 0 -8
11 -8 25 0 14 -4 25 -10 25 -5 0 -10 9 -10 20 0 11 -6 23 -14 26 -8 3 -18 19
-21 35 -4 16 -11 29 -16 29 -5 0 -9 16 -9 35 0 19 -4 35 -9 35 -5 0 -12 18
-16 40 -4 22 -11 40 -16 40 -5 0 -9 23 -9 50 0 28 -4 50 -9 50 -4 0 -11 32
-14 72 -3 39 -11 76 -17 82 -16 16 -13 342 5 391 8 22 14 66 15 97 0 31 5 60
10 63 6 3 10 28 10 56 0 27 4 49 10 49 5 0 12 23 16 50 4 28 10 50 15 50 5 0
9 16 9 35 0 19 5 35 10 35 6 0 10 14 10 30 0 19 5 30 14 30 16 0 26 21 26 56
0 13 5 24 10 24 6 0 10 11 10 25 0 14 4 25 10 25 5 0 12 11 16 25 3 14 10 25
15 25 5 0 9 11 9 25 0 14 4 25 9 25 5 0 12 14 16 30 4 17 11 30 16 30 5 0 9 9
9 20 0 11 4 20 9 20 5 0 12 11 15 25 4 14 11 25 16 25 6 0 10 7 10 15 0 8 7
15 15 15 8 0 15 9 15 20 0 12 11 31 25 44 14 13 25 31 25 40 0 19 23 46 39 46
6 0 11 7 11 15 0 9 11 28 25 43 14 15 25 31 25 35 0 12 57 67 69 67 6 0 11 6
11 13 0 6 27 38 59 70 32 31 56 57 53 57 -3 0 4 9 16 20 12 11 26 20 32 20 5
0 10 5 10 10 0 6 7 10 15 10 8 0 15 5 15 11 0 14 25 39 39 39 6 0 11 7 11 15
0 8 5 15 10 15 14 0 90 75 90 89 0 6 7 11 15 11 15 0 43 21 97 73 16 15 32 27
36 27 4 0 15 10 25 23 9 13 33 29 52 37 19 8 35 20 35 27 0 7 5 13 10 13 6 0
10 7 10 15 0 8 5 15 11 15 6 0 17 6 24 13 33 29 45 37 55 37 5 0 10 5 10 10 0
6 7 10 15 10 8 0 15 6 15 13 0 12 44 37 67 37 7 0 13 7 13 15 0 8 5 15 10 15
6 0 10 7 10 15 0 8 7 15 15 15 8 0 15 5 15 10 0 6 7 10 15 10 9 0 18 7 21 15
4 8 12 15 20 15 8 0 14 5 14 10 0 6 9 10 21 10 11 0 17 4 14 10 -3 5 6 12 20
16 14 3 25 10 25 15 0 5 5 9 11 9 14 0 39 25 39 39 0 6 11 11 25 11 14 0 25 5
25 10 0 15 34 45 55 48 11 2 22 8 23 13 2 5 8 9 13 9 6 0 22 11 37 25 15 14
31 25 35 25 5 0 15 6 22 13 35 31 45 37 60 37 8 0 15 4 15 9 0 5 11 12 25 15
14 4 23 10 20 15 -5 10 37 41 56 41 6 0 22 11 35 25 13 14 32 25 44 25 11 0
20 4 20 9 0 5 11 12 25 15 14 4 25 11 25 16 0 6 7 10 15 10 8 0 15 5 15 10 0
6 9 10 20 10 11 0 23 7 26 15 4 8 15 15 25 15 10 0 19 7 19 15 0 9 9 15 25 15
14 0 25 5 25 10 0 6 9 10 19 10 11 0 26 7 35 15 8 8 31 15 50 15 20 0 36 5 36
10 0 6 68 10 185 10 117 0 185 -4 185 -10 0 -5 25 -10 55 -10 30 0 55 -4 55
-9 0 -5 18 -12 40 -16 22 -4 42 -11 46 -16 3 -5 21 -9 40 -9 22 0 33 -4 32
-12 -2 -8 10 -14 30 -16 18 -2 36 -10 39 -18 3 -8 16 -14 29 -14 13 0 24 -4
24 -10 0 -5 11 -10 25 -10 14 0 25 -4 25 -10 0 -5 11 -12 25 -16 14 -3 25 -10
25 -15 0 -5 9 -9 20 -9 19 0 29 -6 65 -37 17 -16 45 -17 45 -2 0 14 -25 39
-39 39 -6 0 -11 5 -11 10 0 6 -7 10 -15 10 -8 0 -15 4 -15 10 0 5 -11 12 -25
16 -14 3 -25 9 -25 14 0 4 -16 15 -35 26 -19 10 -35 24 -35 31 0 7 -7 13 -15
13 -8 0 -15 4 -15 9 0 5 -11 12 -25 15 -14 4 -25 11 -25 16 0 6 -11 10 -25 10
-14 0 -25 5 -25 10 0 6 -6 10 -14 10 -7 0 -19 7 -26 15 -7 8 -21 15 -32 15
-10 0 -16 5 -13 10 4 6 -5 10 -20 10 -15 0 -33 7 -41 15 -9 8 -24 15 -35 15
-10 0 -19 5 -19 10 0 6 -13 10 -30 10 -20 0 -30 5 -30 15 0 9 -9 15 -21 15
-11 0 -27 7 -35 15 -9 8 -26 15 -40 15 -13 0 -24 5 -24 10 0 6 -15 10 -34 10
-18 0 -39 7 -46 15 -7 8 -25 15 -41 15 -16 0 -29 5 -29 10 0 6 -22 10 -50 10
-27 0 -50 4 -50 9 0 6 -20 13 -45 17 -25 3 -48 10 -51 15 -3 5 -30 9 -60 9
-30 0 -54 4 -54 9 0 4 -32 12 -70 15 -39 4 -68 11 -65 15 7 12 -47 21 -131 21
-43 0 -74 4 -74 10 0 6 -72 10 -195 10 -107 0 -195 -4 -195 -9 0 -5 -36 -11
-81 -13 -44 -3 -84 -10 -88 -16 -4 -6 -26 -14 -49 -18 -23 -4 -42 -10 -42 -15
0 -5 -18 -9 -40 -9 -22 0 -40 -4 -40 -9 0 -5 -11 -12 -25 -15 -14 -4 -25 -11
-25 -16 0 -6 -10 -10 -21 -10 -12 0 -32 -11 -45 -25 -13 -14 -27 -25 -31 -25
-5 0 -20 -11 -35 -25 -15 -14 -32 -25 -38 -25 -5 0 -10 -5 -10 -11 0 -14 -25
-39 -39 -39 -6 0 -11 -6 -11 -13 0 -8 -11 -20 -25 -27 -14 -7 -25 -17 -25 -22
0 -4 -6 -8 -13 -8 -7 0 -19 -8 -28 -17 -8 -10 -31 -31 -50 -46 -19 -15 -34
-31 -34 -35 0 -9 -81 -92 -89 -92 -12 0 -46 -41 -46 -55 0 -8 -5 -15 -11 -15
-14 0 -31 -18 -48 -52 -8 -16 -20 -28 -28 -28 -7 0 -13 -4 -13 -9 0 -5 -22
-33 -49 -62 -78 -84 -81 -88 -81 -99 0 -5 -4 -10 -10 -10 -5 0 -10 -5 -10 -10
0 -6 -11 -23 -25 -38 -14 -15 -25 -31 -25 -36 0 -5 -11 -19 -25 -32 -14 -13
-25 -30 -25 -39 0 -8 -7 -15 -15 -15 -8 0 -15 -7 -15 -15 0 -8 -4 -15 -10 -15
-5 0 -10 -6 -10 -14 0 -8 -7 -16 -15 -20 -8 -3 -15 -13 -15 -22 0 -9 -11 -27
-25 -40 -14 -13 -25 -30 -25 -39 0 -8 -4 -15 -10 -15 -5 0 -10 -7 -10 -15 0
-8 -4 -15 -10 -15 -5 0 -12 -11 -16 -25 -3 -14 -10 -25 -15 -25 -5 0 -9 -8 -9
-18 0 -9 -13 -28 -30 -42 -17 -14 -30 -34 -30 -47 0 -13 -4 -23 -10 -23 -5 0
-12 -11 -16 -25 -3 -14 -10 -25 -15 -25 -5 0 -9 -7 -9 -15 0 -8 -4 -15 -10
-15 -5 0 -10 -9 -10 -20 0 -11 -7 -23 -15 -26 -8 -4 -15 -15 -15 -25 0 -10 -4
-19 -10 -19 -5 0 -10 -11 -10 -24 0 -13 -7 -26 -15 -30 -8 -3 -15 -17 -15 -31
0 -16 -6 -25 -15 -25 -9 0 -15 -9 -15 -25 0 -14 -4 -25 -9 -25 -5 0 -12 -11
-15 -25 -4 -14 -11 -25 -16 -25 -6 0 -10 -11 -10 -25 0 -14 -4 -25 -10 -25 -5
0 -10 -10 -10 -22 0 -13 -7 -32 -15 -42 -8 -11 -15 -28 -15 -38 0 -10 -4 -18
-10 -18 -5 0 -10 -11 -10 -25 0 -14 -4 -25 -10 -25 -5 0 -12 -16 -16 -35 -11
-62 -21 -47 -23 35 -1 44 2 80 7 80 5 0 12 34 14 76 3 41 10 80 17 87 6 6 11
37 11 69 0 32 4 58 10 58 6 0 10 17 10 39 0 21 7 52 15 67 8 16 15 46 15 67 0
20 5 37 10 37 6 0 10 16 10 36 0 19 7 42 15 50 8 9 15 29 15 45 0 16 5 29 10
29 6 0 10 18 10 40 0 29 4 40 15 40 9 0 15 9 15 24 0 14 7 31 15 40 8 8 15 26
15 40 0 14 5 26 10 26 6 0 10 13 10 29 0 16 7 34 15 41 8 7 15 19 15 26 0 14
4 23 34 81 9 17 16 38 16 47 0 9 5 16 10 16 6 0 10 9 10 20 0 21 11 38 43 68
9 9 17 22 17 29 0 7 5 13 10 13 6 0 10 6 10 14 0 17 32 80 43 84 4 2 7 8 7 13
0 9 8 21 38 54 6 7 12 19 12 25 0 6 6 18 13 25 29 33 37 45 37 55 0 5 7 10 15
10 8 0 15 7 15 15 0 8 11 25 25 39 14 14 25 28 25 31 0 10 28 35 39 35 6 0 11
9 11 19 0 10 7 21 15 25 8 3 15 12 15 21 0 8 4 15 8 15 5 0 15 11 22 25 7 14
19 25 25 25 7 0 21 11 31 25 10 14 23 25 27 25 5 0 15 6 22 13 33 29 45 37 55
37 5 0 10 4 10 9 0 5 9 13 20 16 11 4 18 11 15 16 -4 5 2 12 12 15 10 3 26 10
35 15 10 5 24 9 32 9 7 0 19 7 26 15 7 8 23 15 36 15 13 0 24 5 24 10 0 6 17
10 39 10 21 0 52 7 67 15 16 8 45 15 64 15 l35 0 -25 20 c-19 15 -41 20 -92
20 -37 0 -70 -4 -73 -10z"/>
<path d="M8920 8361 c0 -4 -34 -11 -76 -13 -41 -3 -80 -10 -87 -17 -6 -6 -35
-11 -64 -11 -29 0 -53 -4 -53 -10 0 -5 -15 -10 -34 -10 -18 0 -39 -7 -46 -15
-7 -8 -25 -15 -41 -15 -15 0 -31 -4 -34 -10 -3 -5 -15 -10 -26 -10 -11 0 -27
-7 -35 -15 -9 -8 -24 -15 -35 -15 -10 0 -19 -7 -19 -15 0 -9 -9 -15 -25 -15
-14 0 -25 -4 -25 -9 0 -5 -8 -12 -17 -15 -33 -13 -63 -31 -63 -38 0 -5 -11 -8
-24 -8 -13 0 -26 -7 -30 -15 -3 -8 -15 -15 -26 -15 -12 0 -18 -4 -15 -10 3 -5
-1 -10 -9 -10 -9 0 -16 -4 -16 -9 0 -5 -12 -12 -26 -15 -29 -8 -54 -29 -54
-45 0 -6 -7 -11 -15 -11 -8 0 -15 -7 -15 -15 0 -8 -5 -15 -10 -15 -14 0 -66
-52 -63 -62 2 -4 -4 -8 -12 -8 -8 0 -15 -4 -15 -10 0 -5 -7 -10 -15 -10 -8 0
-15 -5 -15 -11 0 -6 -14 -24 -30 -41 -17 -16 -33 -40 -36 -53 -3 -13 -12 -26
-20 -29 -8 -3 -14 -12 -14 -21 0 -8 -4 -15 -10 -15 -5 0 -10 -9 -10 -20 0 -11
-4 -20 -9 -20 -5 0 -13 -10 -17 -22 -8 -26 -28 -48 -43 -48 -6 0 -11 -9 -11
-21 0 -11 -4 -18 -9 -15 -5 3 -17 -6 -27 -19 -10 -14 -24 -25 -30 -25 -7 0
-14 -7 -18 -15 -3 -8 -12 -15 -21 -15 -8 0 -15 -4 -15 -10 0 -5 -7 -10 -15
-10 -8 0 -15 -5 -15 -11 0 -14 -26 -39 -40 -39 -17 0 -40 -26 -40 -44 0 -9 -6
-16 -13 -16 -13 0 -137 -118 -137 -132 0 -4 -7 -8 -15 -8 -8 0 -15 -7 -15 -15
0 -8 -4 -15 -10 -15 -5 0 -10 -7 -10 -15 0 -8 -7 -15 -15 -15 -8 0 -15 -7 -15
-15 0 -8 -4 -15 -10 -15 -5 0 -10 -9 -10 -20 0 -11 -7 -20 -15 -20 -8 0 -15
-9 -15 -20 0 -11 -4 -20 -10 -20 -5 0 -10 -9 -10 -20 0 -11 -7 -20 -15 -20
-10 0 -15 -10 -15 -30 0 -16 -4 -30 -9 -30 -5 0 -11 -12 -13 -27 -2 -16 -8
-27 -14 -26 -6 1 -14 -17 -17 -40 -3 -23 -11 -43 -16 -45 -7 -2 -11 -39 -11
-93 0 -72 3 -89 15 -89 8 0 15 5 15 10 0 6 7 10 15 10 8 0 15 5 15 11 0 11 25
39 35 39 3 0 18 11 33 25 15 14 32 25 39 25 7 0 13 6 13 14 0 8 11 17 25 20
14 4 25 11 25 16 0 6 14 10 30 10 17 0 30 5 30 10 0 6 11 10 24 10 13 0 29 7
36 15 7 8 25 15 41 15 16 0 29 5 29 10 0 6 25 10 56 10 30 0 53 4 50 9 -7 11
43 21 105 21 27 0 49 5 49 10 0 7 83 9 253 6 265 -4 400 -15 419 -34 7 -7 27
-12 45 -12 31 0 33 -2 33 -33 0 -18 -5 -38 -11 -44 -15 -15 6 -323 22 -323 5
0 9 -18 9 -40 0 -25 5 -43 14 -46 8 -3 16 -27 20 -55 4 -27 11 -49 16 -49 6 0
10 -18 10 -41 0 -24 4 -38 10 -34 6 3 10 -4 10 -17 0 -14 7 -33 15 -44 8 -10
15 -31 15 -46 0 -16 5 -28 10 -28 6 0 10 -9 10 -20 0 -11 4 -20 8 -20 10 0 42
71 42 93 0 10 4 17 10 17 5 0 12 11 16 25 3 14 12 25 20 25 8 0 14 9 14 19 0
11 5 23 10 26 6 3 10 15 10 26 0 10 7 19 15 19 8 0 15 7 15 15 0 8 5 15 10 15
6 0 10 9 10 20 0 12 11 31 25 44 14 13 25 26 25 30 0 4 6 14 13 21 6 8 25 30
41 49 15 20 34 36 42 36 8 0 14 7 14 15 0 8 5 15 10 15 6 0 10 7 10 15 0 8 5
15 10 15 10 0 22 8 55 38 7 6 16 12 20 12 10 0 35 28 35 39 0 6 4 11 10 11 5
0 13 12 16 26 8 31 54 81 54 58 0 -8 7 -17 15 -20 8 -4 15 -13 15 -21 0 -7 11
-26 25 -41 14 -15 25 -35 25 -44 0 -10 4 -18 9 -18 5 0 12 -16 15 -35 4 -19
11 -35 16 -35 6 0 10 -16 10 -35 0 -19 5 -35 10 -35 6 0 10 -25 10 -56 0 -43
3 -55 14 -51 10 4 14 -17 20 -100 8 -142 -2 -303 -21 -303 -9 0 -13 -17 -13
-65 0 -37 -4 -65 -10 -65 -5 0 -10 -17 -10 -39 0 -22 -6 -44 -15 -51 -8 -7
-15 -28 -15 -46 0 -19 -4 -34 -10 -34 -5 0 -10 -13 -10 -30 0 -16 -4 -30 -8
-30 -10 0 -42 -71 -42 -93 0 -10 -4 -17 -10 -17 -5 0 -12 -11 -16 -25 -3 -14
-10 -25 -15 -25 -5 0 -9 -9 -9 -20 0 -11 -7 -20 -15 -20 -8 0 -15 -7 -15 -15
0 -8 -4 -15 -10 -15 -5 0 -12 -11 -16 -25 -3 -14 -10 -25 -15 -25 -5 0 -9 -5
-9 -11 0 -7 -11 -22 -25 -35 -14 -13 -25 -27 -25 -31 0 -11 -84 -103 -94 -103
-11 0 -36 -27 -36 -39 0 -5 -9 -13 -20 -16 -11 -3 -20 -11 -20 -16 0 -5 -5 -9
-10 -9 -6 0 -21 -11 -34 -25 -13 -14 -26 -25 -30 -25 -7 0 -20 -10 -51 -37 -7
-7 -21 -13 -29 -13 -9 0 -16 -4 -16 -10 0 -5 -9 -10 -19 -10 -10 0 -21 -7 -25
-15 -3 -8 -15 -15 -26 -15 -11 0 -20 -7 -20 -15 0 -8 -7 -15 -14 -15 -8 0 -36
-11 -62 -25 -26 -14 -53 -25 -60 -25 -8 0 -14 -4 -14 -10 0 -5 -10 -10 -23
-10 -13 0 -32 -7 -43 -15 -10 -8 -29 -15 -41 -15 -13 0 -23 -4 -23 -10 0 -5
-18 -10 -40 -10 -22 0 -40 -4 -40 -10 0 -5 -22 -12 -50 -16 -27 -4 -50 -10
-50 -15 0 -5 -27 -9 -60 -9 -47 0 -60 -3 -60 -15 0 -12 -14 -15 -68 -15 -41 0
-73 -5 -80 -12 -9 -9 -60 -14 -163 -16 -86 -2 -147 -8 -143 -13 3 -5 -34 -9
-85 -9 -50 0 -91 4 -91 8 0 5 -60 9 -132 11 -73 1 -151 7 -173 13 -22 6 -70
13 -107 15 -50 3 -68 8 -68 19 0 10 -14 14 -55 14 -30 0 -63 4 -73 9 -9 6 -34
13 -54 16 -21 3 -38 10 -38 15 0 6 -22 10 -49 10 -28 0 -53 4 -56 10 -3 6 -21
10 -39 10 -19 0 -39 7 -46 15 -7 8 -28 15 -46 15 -19 0 -34 5 -34 10 0 6 -12
10 -27 10 -16 0 -37 7 -47 15 -11 8 -30 15 -43 15 -13 0 -23 4 -23 9 0 6 -15
11 -32 13 -20 2 -32 8 -31 16 2 7 -7 12 -21 12 -14 0 -31 7 -40 15 -8 8 -24
15 -35 15 -12 0 -21 5 -21 10 0 6 -11 10 -24 10 -13 0 -29 7 -36 15 -7 8 -21
15 -31 15 -11 0 -19 5 -19 10 0 6 -11 10 -25 10 -14 0 -25 4 -25 10 0 5 -11
12 -25 16 -14 3 -25 10 -25 15 0 5 -11 9 -25 9 -14 0 -25 4 -25 10 0 5 -11 12
-24 16 -14 3 -27 12 -30 20 -3 8 -15 14 -26 14 -12 0 -18 5 -15 10 3 6 -3 10
-14 10 -11 0 -22 4 -26 9 -6 11 -63 41 -77 41 -5 0 -16 6 -23 13 -33 29 -45
37 -55 37 -5 0 -10 4 -10 9 0 5 -11 12 -25 15 -14 4 -25 11 -25 16 0 6 -7 10
-15 10 -9 0 -12 6 -9 15 5 11 -1 15 -25 15 -21 0 -31 5 -31 15 0 8 -7 15 -15
15 -8 0 -15 5 -15 10 0 6 -5 10 -10 10 -11 0 -25 10 -64 46 -12 12 -32 25 -44
28 -12 4 -22 12 -22 17 0 5 -7 9 -15 9 -8 0 -15 5 -15 10 0 6 -7 10 -15 10 -8
0 -15 6 -15 13 0 7 -10 19 -22 27 -12 8 -34 27 -49 43 -16 15 -33 27 -39 27
-5 0 -10 5 -10 10 0 6 -7 10 -15 10 -8 0 -15 7 -15 15 0 8 -5 15 -10 15 -6 0
-22 11 -36 25 -14 14 -29 25 -34 25 -6 0 -10 7 -10 15 0 8 -4 15 -8 15 -4 0
-25 16 -45 35 -20 19 -39 35 -42 35 -6 0 -115 109 -115 116 0 6 -51 62 -127
139 -29 30 -53 57 -53 62 0 5 -8 15 -17 24 -10 8 -27 28 -38 43 -11 16 -26 34
-33 41 -6 8 -12 18 -12 24 0 6 -7 11 -15 11 -8 0 -15 5 -15 10 0 6 -7 10 -15
10 -8 0 -15 9 -15 20 0 11 -4 20 -10 20 -5 0 -10 7 -10 15 0 9 -11 26 -25 39
-14 13 -25 26 -25 30 0 4 -5 12 -10 19 -6 7 -22 26 -35 42 l-25 30 0 -31 c0
-45 -11 -94 -20 -89 -8 5 -20 -77 -20 -137 0 -21 -4 -38 -10 -38 -5 0 -10 -24
-10 -53 0 -45 5 -59 30 -88 16 -19 34 -39 40 -46 5 -7 10 -19 10 -28 0 -9 7
-18 15 -21 8 -4 15 -12 15 -20 0 -8 3 -14 8 -14 4 0 13 -14 21 -31 7 -17 24
-41 37 -54 13 -13 24 -28 24 -33 0 -6 7 -12 15 -16 8 -3 15 -12 15 -21 0 -8 7
-15 15 -15 8 0 15 -7 15 -15 0 -8 7 -15 16 -15 8 0 12 -5 9 -10 -3 -6 1 -13 9
-16 9 -3 16 -11 16 -16 0 -6 11 -21 25 -34 14 -13 25 -26 25 -29 0 -4 6 -12
13 -19 6 -7 23 -27 37 -44 14 -18 30 -32 36 -32 7 0 19 -11 28 -25 32 -48 177
-185 196 -185 11 0 19 -4 17 -8 -2 -8 57 -72 67 -72 3 0 22 -16 42 -35 19 -19
42 -35 50 -35 8 0 17 -7 20 -15 4 -8 10 -15 16 -15 12 0 38 -26 38 -38 0 -5
11 -13 25 -16 14 -4 25 -11 25 -16 0 -6 5 -10 11 -10 6 0 17 -6 24 -12 35 -32
45 -38 60 -38 8 0 15 -4 15 -10 0 -5 6 -10 13 -10 7 0 24 -11 39 -25 15 -14
36 -25 48 -25 11 0 20 -7 20 -15 0 -8 3 -14 8 -14 20 3 32 -2 32 -16 0 -9 9
-15 25 -15 14 0 25 -4 25 -10 0 -5 9 -10 20 -10 11 0 20 -7 20 -15 0 -9 9 -15
25 -15 14 0 25 -4 25 -10 0 -5 7 -10 16 -10 8 0 22 -7 30 -15 9 -8 24 -15 35
-15 10 0 19 -4 19 -10 0 -5 11 -10 25 -10 20 0 25 -5 25 -25 0 -23 -4 -25 -45
-25 -25 0 -45 4 -45 9 0 5 -10 11 -22 13 -13 2 -22 9 -21 16 2 7 -8 12 -22 12
-14 0 -25 5 -25 10 0 6 -8 10 -19 10 -10 0 -24 7 -31 15 -7 8 -21 15 -31 15
-11 0 -19 5 -19 10 0 6 -9 10 -20 10 -11 0 -23 7 -26 15 -4 8 -12 15 -20 15
-8 0 -14 5 -14 10 0 6 -11 10 -25 10 -15 0 -25 6 -25 14 0 8 -9 18 -20 21 -11
3 -20 11 -20 16 0 5 -9 9 -20 9 -11 0 -20 5 -20 10 0 6 -6 10 -13 10 -7 0 -24
11 -39 25 -15 14 -30 25 -33 25 -4 0 -13 6 -20 13 -33 29 -45 37 -55 37 -5 0
-10 5 -10 10 0 6 -7 10 -15 10 -8 0 -19 9 -25 20 -6 11 -16 20 -22 20 -6 0
-25 16 -44 35 -18 19 -36 35 -39 35 -4 0 -13 6 -20 13 -29 26 -44 37 -49 37
-10 0 -66 59 -66 70 0 5 -6 10 -13 10 -8 0 -20 11 -27 25 -7 14 -17 25 -22 25
-13 0 -38 26 -38 39 0 6 -7 11 -15 11 -8 0 -15 5 -15 10 0 6 -7 10 -15 10 -8
0 -15 7 -15 15 0 8 -5 15 -11 15 -14 0 -39 25 -39 39 0 6 -4 11 -10 11 -5 0
-10 7 -10 15 0 8 -7 15 -15 15 -8 0 -15 4 -15 9 0 4 -16 25 -35 45 -19 21 -35
41 -35 45 0 4 -13 18 -30 31 -16 14 -29 31 -30 38 0 6 -4 12 -8 12 -5 0 -17
16 -28 35 -10 19 -22 35 -26 35 -5 0 -8 5 -8 10 0 6 -11 21 -25 34 -14 13 -25
31 -25 40 0 9 -4 16 -10 16 -5 0 -10 7 -10 15 0 8 -9 19 -20 25 -11 6 -20 17
-20 25 0 8 -4 15 -10 15 -10 0 -13 -93 -11 -310 2 -103 2 -105 31 -131 17 -14
30 -33 30 -42 0 -9 5 -17 10 -17 6 0 10 -9 10 -20 0 -11 5 -20 11 -20 17 0 39
-27 39 -49 0 -12 5 -21 11 -21 14 0 39 -25 39 -39 0 -6 5 -11 10 -11 6 0 10
-7 10 -15 0 -8 4 -15 10 -15 5 0 12 -11 16 -25 3 -14 11 -25 16 -25 13 0 88
-76 88 -90 0 -5 5 -10 11 -10 11 0 39 -24 39 -34 0 -8 58 -66 66 -66 4 0 19
-12 34 -27 33 -34 78 -73 85 -73 9 0 45 -40 45 -50 0 -5 7 -10 15 -10 8 0 15
-4 15 -10 0 -5 6 -10 14 -10 8 0 16 -7 20 -15 3 -8 12 -15 21 -15 8 0 15 -4
15 -10 0 -5 5 -10 10 -10 6 0 21 -11 34 -25 13 -14 30 -25 39 -25 8 0 18 -7
21 -16 3 -8 10 -12 16 -9 5 3 10 -1 10 -9 0 -25 -40 -19 -66 9 -13 14 -30 25
-39 25 -8 0 -15 5 -15 10 0 6 -7 10 -15 10 -8 0 -15 7 -15 15 0 8 -7 15 -15
15 -8 0 -15 5 -15 10 0 6 -7 10 -15 10 -8 0 -25 11 -39 25 -14 14 -30 25 -36
25 -5 0 -10 5 -10 12 0 15 -78 85 -117 104 -18 9 -33 23 -33 30 0 8 -5 14 -11
14 -6 0 -17 6 -25 14 -8 8 -14 19 -14 25 0 6 -7 11 -16 11 -8 0 -13 4 -10 8 2
4 -13 27 -35 50 -21 24 -39 47 -39 52 0 6 -7 10 -15 10 -8 0 -15 7 -15 15 0 8
-5 15 -11 15 -13 0 -39 25 -39 38 0 6 -7 13 -16 16 -8 3 -12 10 -9 16 3 5 -1
10 -9 10 -10 0 -16 9 -16 25 0 14 -6 25 -13 25 -8 0 -20 11 -27 25 -7 14 -17
25 -21 25 -4 0 -10 11 -13 25 -4 14 -13 25 -21 25 -8 0 -15 7 -15 16 0 8 -4
12 -10 9 -13 -8 -13 -135 0 -135 6 0 10 -26 11 -57 0 -59 15 -161 18 -133 4
27 20 -22 20 -62 1 -21 6 -38 11 -38 6 0 10 -7 10 -15 0 -8 4 -15 9 -15 5 0
11 -9 14 -21 3 -12 10 -19 14 -16 5 3 10 -3 10 -14 2 -21 26 -49 42 -49 6 0
11 -7 11 -15 0 -8 5 -15 10 -15 6 0 10 -6 10 -13 0 -18 39 -63 51 -60 5 2 9
-4 9 -12 0 -8 5 -15 11 -15 6 0 17 -6 25 -14 8 -8 14 -19 14 -25 0 -6 5 -11
10 -11 6 0 28 -18 50 -40 22 -22 44 -40 50 -40 5 0 10 -7 10 -15 0 -8 7 -15
15 -15 8 0 15 -4 15 -10 0 -5 5 -10 11 -10 6 0 17 -6 24 -12 33 -30 45 -38 55
-38 5 0 10 -9 10 -20 0 -25 -11 -25 -38 0 -12 11 -26 20 -32 20 -5 0 -10 4
-10 9 0 5 -10 13 -22 17 -13 4 -30 15 -39 25 -9 11 -21 19 -28 19 -6 0 -11 5
-11 11 0 7 -16 26 -35 45 -19 18 -35 37 -35 42 0 6 -11 13 -25 16 -14 4 -25
13 -25 21 0 8 -4 15 -9 15 -13 0 -71 56 -71 69 0 6 -7 11 -15 11 -8 0 -15 7
-15 15 0 8 -4 15 -10 15 -5 0 -10 5 -10 10 0 6 -5 16 -10 23 -6 7 -17 21 -25
32 -14 19 -14 18 -15 -12 0 -18 4 -33 9 -33 5 0 12 -22 16 -50 4 -27 11 -50
16 -50 5 0 9 -20 9 -45 0 -25 4 -45 9 -45 4 0 11 -19 14 -42 3 -24 11 -44 16
-46 6 -2 11 -19 11 -38 0 -19 5 -34 10 -34 6 0 10 -11 10 -24 0 -14 7 -31 15
-40 8 -8 15 -28 15 -45 0 -20 5 -30 13 -28 7 1 13 -11 15 -30 2 -18 7 -33 12
-33 5 0 11 -13 15 -30 4 -17 11 -30 16 -30 5 0 9 -9 9 -19 0 -11 5 -23 10 -26
6 -3 10 -17 10 -29 0 -13 7 -29 15 -36 8 -7 15 -21 15 -31 0 -11 5 -19 10 -19
6 0 10 -8 10 -19 0 -10 6 -24 14 -30 8 -7 20 -32 27 -57 8 -26 18 -43 25 -40
7 3 15 -6 18 -20 4 -13 11 -24 16 -24 6 0 10 -7 10 -15 0 -17 18 -52 38 -73 6
-7 12 -20 12 -28 0 -8 4 -14 9 -14 5 0 12 -11 15 -25 4 -14 11 -25 16 -25 6 0
10 -7 10 -15 0 -8 5 -15 10 -15 6 0 10 -7 10 -15 0 -17 35 -55 50 -55 6 0 10
-7 10 -15 0 -8 5 -15 10 -15 6 0 10 -11 10 -25 0 -16 6 -25 15 -25 8 0 15 -5
15 -10 0 -6 11 -22 25 -36 14 -14 25 -30 25 -35 0 -6 16 -26 35 -45 19 -18 35
-38 35 -44 0 -5 7 -10 15 -10 8 0 15 -6 15 -13 0 -7 11 -24 25 -39 14 -15 25
-32 25 -38 0 -5 4 -9 9 -7 9 2 61 -53 61 -65 0 -5 7 -8 15 -8 8 0 15 -7 15
-15 0 -8 5 -15 10 -15 6 0 10 -7 10 -15 0 -8 7 -15 16 -15 18 0 44 -23 44 -39
0 -6 3 -11 8 -11 12 0 62 -47 62 -59 0 -6 6 -11 13 -11 8 0 27 -13 43 -30 16
-16 33 -30 37 -30 5 0 23 -16 41 -35 19 -19 37 -35 40 -35 4 0 13 -6 21 -12 7
-7 25 -22 41 -33 15 -11 36 -28 46 -37 10 -10 24 -18 32 -18 7 0 21 -11 32
-24 10 -14 28 -27 41 -31 13 -3 23 -10 23 -15 0 -6 5 -10 11 -10 6 0 17 -6 24
-12 35 -32 45 -38 60 -38 8 0 15 -4 15 -10 0 -5 9 -10 20 -10 11 0 20 -7 20
-15 0 -8 7 -15 15 -15 17 0 52 -18 73 -37 7 -7 20 -13 28 -13 8 0 14 -7 14
-15 0 -9 9 -15 25 -15 14 0 25 -4 25 -10 0 -5 9 -10 20 -10 11 0 23 -7 26 -15
4 -8 17 -15 30 -15 13 0 24 -4 24 -10 0 -5 11 -10 25 -10 16 0 25 -6 25 -15 0
-10 10 -15 30 -15 17 0 30 -4 30 -10 0 -5 11 -10 24 -10 13 0 29 -7 36 -15 7
-8 20 -15 29 -15 9 0 21 -4 27 -9 5 -5 23 -11 39 -13 17 -2 29 -8 28 -15 -2
-8 7 -13 21 -13 14 0 31 -7 40 -15 8 -8 28 -15 45 -15 17 0 31 -4 31 -9 0 -5
17 -11 38 -14 36 -4 89 -21 124 -38 10 -5 36 -9 58 -9 22 0 40 -4 40 -9 0 -5
23 -12 50 -16 28 -4 50 -11 50 -16 0 -5 29 -9 65 -9 36 0 65 -4 65 -9 0 -4 31
-11 69 -15 38 -4 71 -12 74 -19 2 -7 41 -13 105 -15 56 -2 102 -8 102 -13 0
-5 144 -9 325 -9 210 0 325 4 325 10 0 6 31 10 73 10 85 0 149 9 142 20 -3 5
29 11 70 15 41 4 75 11 75 16 0 5 27 9 59 9 33 0 62 4 65 9 4 5 29 12 56 16
28 4 50 11 50 16 0 5 20 9 45 9 25 0 45 5 45 10 0 6 13 10 28 10 16 0 37 7 48
15 10 8 33 15 51 15 17 0 35 5 38 10 3 5 17 10 31 10 14 0 32 7 40 15 9 8 26
15 40 15 15 0 24 6 24 15 0 10 11 15 35 15 19 0 35 5 35 10 0 6 9 10 19 10 11
0 26 7 35 15 8 8 24 15 35 15 12 0 21 5 21 10 0 6 11 10 25 10 14 0 28 6 31
13 2 7 17 14 32 15 15 1 29 7 30 12 2 6 12 10 22 10 9 0 23 7 30 15 7 8 19 15
26 15 8 0 14 5 14 10 0 6 11 10 25 10 16 0 25 6 25 15 0 9 9 15 25 15 16 0 25
6 25 15 0 9 9 15 25 15 14 0 25 5 25 10 0 6 5 10 11 10 6 0 17 6 24 13 36 31
46 37 65 37 11 0 23 7 26 15 4 8 12 15 20 15 8 0 14 5 14 10 0 6 7 10 16 10 9
0 27 11 40 25 13 14 32 25 44 25 11 0 19 3 18 8 -4 11 35 52 49 52 7 0 13 5
13 10 0 6 9 10 20 10 11 0 20 7 20 15 0 8 6 15 13 15 7 0 19 9 27 20 8 11 20
20 27 20 7 0 13 7 13 15 0 8 9 15 19 15 10 0 21 7 25 15 3 8 12 15 21 15 8 0
15 5 15 11 0 11 25 39 35 39 10 0 35 28 35 39 0 6 5 11 11 11 14 0 39 25 39
39 0 6 5 11 10 11 14 0 120 107 120 120 0 6 5 10 11 10 11 0 39 25 39 35 0 10
28 35 39 35 6 0 11 5 11 11 0 6 14 24 30 41 17 16 30 33 30 38 0 4 20 29 45
54 24 26 44 48 42 51 -1 2 6 14 16 25 9 11 17 25 17 30 0 6 3 10 8 10 7 0 25
30 38 62 3 10 13 18 20 18 8 0 14 5 14 11 0 6 6 17 13 24 33 38 57 79 57 100
0 8 7 15 15 15 8 0 15 9 15 20 0 11 5 20 10 20 6 0 10 7 10 16 0 8 6 22 13 29
31 36 37 46 37 65 0 11 7 20 15 20 8 0 15 9 15 19 0 11 7 26 15 35 8 8 15 22
15 30 0 9 5 16 10 16 6 0 10 8 10 19 0 10 7 24 15 31 8 7 15 21 15 31 0 11 5
19 10 19 6 0 10 13 10 29 0 16 3 31 8 33 13 6 42 69 42 94 0 14 4 23 9 20 5
-3 12 10 15 29 4 21 13 35 21 35 10 0 15 11 15 35 0 19 5 35 10 35 6 0 10 12
10 28 0 15 7 36 15 46 8 11 15 33 15 49 0 16 4 26 10 22 6 -4 10 10 10 34 0
22 4 42 9 46 6 3 13 26 17 50 3 25 10 45 15 45 5 0 9 23 9 50 0 28 4 50 9 50
4 0 11 26 14 57 3 32 11 59 17 61 6 2 10 35 10 78 0 58 3 74 14 74 18 0 27
147 27 435 1 268 -9 425 -27 425 -11 0 -14 17 -14 75 0 41 -4 75 -10 75 -5 0
-12 27 -16 60 -4 33 -11 60 -15 60 -5 0 -9 23 -9 50 0 28 -4 50 -9 50 -5 0
-12 20 -15 45 -4 25 -11 45 -17 45 -5 0 -9 18 -9 41 0 24 -4 38 -10 34 -6 -4
-10 6 -10 23 0 16 -7 35 -15 42 -8 7 -15 25 -15 41 0 16 -4 29 -10 29 -5 0
-10 9 -10 21 0 11 -9 32 -20 46 -11 14 -20 32 -20 39 0 8 -4 14 -10 14 -5 0
-10 11 -10 25 0 14 -4 25 -10 25 -5 0 -10 11 -10 25 0 14 -7 28 -15 31 -8 4
-15 17 -15 30 0 13 -4 24 -10 24 -5 0 -10 11 -10 25 0 16 -6 25 -15 25 -9 0
-15 9 -15 25 0 14 -4 25 -10 25 -5 0 -10 8 -10 18 -1 20 -33 62 -49 62 -6 0
-11 9 -11 21 0 11 -6 27 -12 34 -30 33 -38 45 -38 55 0 5 -4 10 -10 10 -5 0
-10 9 -10 20 0 10 -11 30 -25 44 -14 14 -25 28 -25 31 0 4 -6 13 -12 20 -30
33 -38 45 -38 55 0 5 -6 10 -14 10 -8 0 -16 10 -20 23 -3 12 -14 32 -26 44
-11 12 -20 27 -20 33 0 5 -5 10 -11 10 -12 0 -39 25 -39 37 0 4 -11 20 -25 35
-14 15 -25 32 -25 38 0 5 -4 10 -10 10 -5 0 -10 7 -10 15 0 8 -5 15 -10 15 -6
0 -55 45 -110 100 -55 55 -104 100 -110 100 -5 0 -10 5 -10 12 0 14 -77 86
-101 93 -11 4 -19 11 -19 16 0 5 -7 9 -15 9 -8 0 -15 5 -15 10 0 6 -11 10 -24
10 -13 0 -26 7 -30 15 -3 8 -15 15 -26 15 -11 0 -20 5 -20 10 0 6 -11 10 -25
10 -16 0 -25 6 -25 15 0 9 -9 15 -24 15 -14 0 -31 7 -40 15 -8 8 -28 15 -45
15 -17 0 -31 5 -31 10 0 6 -15 10 -32 10 -18 0 -42 7 -52 15 -11 8 -39 15 -63
15 -24 0 -43 5 -43 10 0 6 -20 10 -44 10 -24 0 -60 7 -79 15 -21 9 -67 15
-107 15 -40 0 -70 4 -70 10 0 6 -90 10 -250 10 -137 0 -250 -4 -250 -9z m-60
-686 c7 -8 18 -15 24 -15 6 0 18 -10 26 -22 8 -11 23 -28 33 -37 23 -21 25
-141 2 -141 -8 0 -15 -7 -15 -15 0 -8 -12 -26 -27 -40 -16 -14 -35 -32 -44
-40 -22 -21 -132 -20 -153 0 -8 8 -19 15 -25 15 -6 0 -11 6 -11 13 0 7 -11 21
-25 31 -23 17 -25 25 -25 98 l0 79 47 44 c46 44 49 45 114 45 47 0 70 -4 79
-15z m-155 -865 c3 -5 21 -10 39 -10 19 0 39 -7 46 -15 7 -8 23 -15 36 -15 14
0 24 -6 24 -14 0 -9 12 -16 28 -18 19 -2 28 -9 30 -25 2 -16 -2 -23 -13 -23
-9 0 -14 -4 -11 -8 3 -5 -4 -15 -15 -22 -10 -8 -19 -19 -19 -24 0 -5 -11 -19
-25 -32 -14 -13 -25 -28 -25 -34 0 -5 -4 -10 -10 -10 -5 0 -10 -9 -10 -20 0
-11 -6 -23 -13 -26 -8 -3 -20 -20 -27 -39 -8 -19 -20 -35 -27 -35 -7 0 -13 -9
-13 -20 0 -11 -7 -23 -15 -26 -8 -4 -15 -18 -15 -34 0 -19 -6 -29 -19 -33 -28
-7 -31 -1 -31 60 0 29 -4 53 -10 53 -6 0 -10 57 -10 151 0 97 4 148 10 144 6
-4 10 12 10 39 l0 46 39 0 c22 0 43 -4 46 -10z"/>
<path d="M7850 6610 c0 -6 14 -13 30 -16 17 -4 30 -10 30 -15 0 -5 7 -9 15 -9
8 0 15 -7 15 -15 0 -8 3 -15 8 -15 13 0 112 -102 112 -115 0 -7 19 -31 43 -53
9 -9 17 -24 17 -34 0 -9 5 -20 10 -23 6 -3 10 -17 10 -30 0 -12 7 -25 15 -29
9 -3 15 -18 15 -36 0 -18 4 -29 10 -25 6 4 10 -15 10 -49 0 -34 5 -56 13 -58
9 -4 12 -47 12 -171 0 -119 -4 -169 -12 -178 -7 -7 -13 -32 -13 -56 0 -24 -4
-43 -10 -43 -5 0 -10 -11 -10 -24 0 -13 -7 -29 -15 -36 -8 -7 -15 -21 -15 -31
0 -11 -4 -19 -10 -19 -5 0 -10 -9 -10 -20 0 -11 -6 -20 -14 -20 -8 0 -18 -9
-21 -20 -3 -11 -11 -20 -16 -20 -5 0 -9 -5 -9 -11 0 -16 -109 -119 -125 -119
-8 0 -15 -7 -15 -15 0 -8 -9 -15 -20 -15 -11 0 -20 -4 -20 -10 0 -5 -11 -12
-25 -16 -14 -3 -25 -10 -25 -15 0 -5 -15 -9 -34 -9 -19 0 -36 -5 -38 -12 -3
-8 -44 -12 -138 -12 -94 0 -135 4 -138 12 -2 7 -19 12 -38 12 -19 0 -34 3 -34
8 0 7 -30 25 -62 38 -10 3 -18 13 -18 20 0 8 -7 14 -15 14 -8 0 -15 5 -15 10
0 6 -5 10 -10 10 -13 0 -70 51 -70 62 0 13 -26 38 -39 38 -6 0 -11 9 -11 20 0
11 -4 20 -10 20 -5 0 -10 9 -10 21 0 11 -7 27 -15 35 -8 9 -15 24 -15 34 0 10
-4 22 -10 25 -5 3 -10 17 -10 30 0 30 -10 56 -20 50 -7 -4 -20 114 -20 187 0
24 -4 37 -10 33 -17 -10 -13 -228 5 -261 8 -16 15 -41 15 -56 0 -18 5 -28 15
-28 10 0 15 -10 15 -27 0 -30 30 -103 42 -103 4 0 8 -7 8 -15 0 -8 5 -15 10
-15 6 0 10 -7 10 -15 0 -9 11 -26 25 -39 14 -13 25 -26 25 -30 0 -10 56 -66
66 -66 4 0 17 -11 30 -25 13 -14 28 -25 34 -25 5 0 10 -4 10 -10 0 -5 9 -10
20 -10 11 0 20 -7 20 -15 0 -9 9 -15 25 -15 14 0 25 -4 25 -10 0 -5 14 -10 30
-10 19 0 30 -5 30 -14 0 -9 17 -16 45 -20 25 -4 45 -11 45 -17 0 -5 71 -9 170
-9 101 0 170 4 170 10 0 5 15 12 34 16 19 3 37 12 40 20 3 8 15 14 26 14 18 0
38 8 80 32 8 4 22 11 30 15 8 4 26 17 40 30 14 13 29 23 33 23 5 0 23 16 41
35 19 19 38 35 45 35 6 0 11 9 11 20 0 12 10 31 23 43 12 12 31 39 42 60 11
20 23 37 27 37 5 0 8 11 8 24 0 14 5 28 10 31 6 3 10 19 10 34 0 15 7 36 15
47 11 15 14 57 14 209 0 152 -3 194 -14 209 -8 11 -15 35 -15 53 0 18 -4 33
-10 33 -5 0 -10 14 -10 31 0 17 -7 37 -15 45 -8 9 -15 24 -15 35 0 10 -4 19
-10 19 -5 0 -10 9 -10 20 0 11 -4 20 -10 20 -5 0 -12 11 -16 25 -3 14 -10 25
-15 25 -5 0 -9 7 -9 15 0 8 -8 15 -17 16 -15 0 -15 2 2 9 17 7 17 9 3 9 -10 1
-18 8 -18 16 0 8 -5 15 -11 15 -11 0 -39 25 -39 35 0 10 -28 35 -39 35 -6 0
-11 6 -11 13 -1 15 -74 67 -95 67 -8 0 -15 7 -15 15 0 8 -9 15 -19 15 -11 0
-23 5 -26 10 -3 6 -17 10 -29 10 -13 0 -29 7 -36 15 -14 17 -120 21 -120 5z"/>
</g>
</svg>
