<?xml version="1.0" encoding="utf-8"?>
<!-- Uploaded to: SVG Repo, www.svgrepo.com, Generator: SVG Repo Mixer Tools -->
<svg width="800px" height="800px" viewBox="0 0 1024 1024" fill="#000000" class="icon"  version="1.1" xmlns="http://www.w3.org/2000/svg"><path d="M538.4 1017.6h-6.4c-80-4-112.8-72-118.4-107.2-2.4-14.4 7.2-28 21.6-29.6h4.8c12.8 0 23.2 8.8 25.6 21.6 0.8 6.4 12.8 60.8 69.6 64h4.8c53.6 0 66.4-61.6 66.4-64.8 2.4-12 12.8-20.8 25.6-20.8 1.6 0 3.2 0 5.6 0.8 6.4 1.6 12.8 5.6 16.8 11.2s5.6 12.8 4 19.2c-8.8 36-43.2 105.6-120 105.6z m-453.6-144c-24 0-43.2-7.2-55.2-20.8-10.4-12-13.6-28-12.8-38.4V784c-3.2-18.4 4-61.6 84-136 78.4-72.8 127.2-271.2 127.2-413.6C228.8 69.6 461.6 48.8 471.2 48h4.8V28C476 16 485.6 6.4 497.6 6.4h21.6c12 0 21.6 9.6 21.6 21.6V48h9.6c10.4 0.8 244.8 20 244.8 185.6 0 140.8 52.8 340.8 132 413.6 80 74.4 80 115.2 79.2 138.4v27.2c0.8 14.4-0.8 28-8.8 38.4-11.2 14.4-28.8 22.4-53.6 22.4H84.8z m-15.2-55.2c0.8 0.8 5.6 3.2 15.2 3.2h868.8l1.6-44.8v-2.4c0-5.6-4.8-32.8-64-87.2-92-86.4-148.8-302.4-148.8-452.8 0-115.2-192.8-133.6-194.4-133.6h-74.4c-20 2.4-192.8 23.2-192.8 133.6 0 132-44.8 360-143.2 452-60.8 56-67.2 84.8-68 90.4l0.8 1.6-0.8 40z" fill="" /></svg>